<svg xmlns="http://www.w3.org/2000/svg" viewBox="0 0 1200 250" width="1200" height="250" role="img" aria-label="Three channels: Agents, Networks, Products">
<style>
.w{animation:mv 2.2s linear infinite} .w1{animation-duration:2.8s} .w2{animation-duration:1.8s}
@keyframes mv{from{transform:translateX(0)}to{transform:translateX(-80px)}}
.eq{transform-box:fill-box;transform-origin:bottom;animation:eq 1.1s ease-in-out infinite}
.e1{animation-delay:-.3s}.e2{animation-delay:-.6s}.e3{animation-delay:-.85s}
@keyframes eq{0%,100%{transform:scaleY(.3)}50%{transform:scaleY(1)}}
</style>
<g transform="translate(0,0)">
  <clipPath id="c0"><rect width="384" height="250" rx="18"/></clipPath>
  <g clip-path="url(#c0)">
    <rect width="384" height="250" fill="#0A1120"/>
    <rect width="384" height="3" fill="#22D3EE" opacity=".9"/>
    <text x="28" y="40" font-size="12" fill="#22D3EE" letter-spacing="2.5" font-family="'JetBrains Mono','SFMono-Regular',Consolas,'Liberation Mono',monospace">CH 01 · ON AIR</text>
    <rect class="eq e0" x="356" y="22" width="5" height="18" rx="1.5" fill="#22D3EE"/><rect class="eq e1" x="347" y="22" width="5" height="18" rx="1.5" fill="#22D3EE"/><rect class="eq e2" x="338" y="22" width="5" height="18" rx="1.5" fill="#22D3EE"/><rect class="eq e3" x="329" y="22" width="5" height="18" rx="1.5" fill="#22D3EE"/><rect class="eq e0" x="320" y="22" width="5" height="18" rx="1.5" fill="#22D3EE"/>
    <text x="28" y="84" font-size="30" font-weight="800" fill="#F1F6FF" letter-spacing="1" font-family="'Segoe UI','Inter','Helvetica Neue',Arial,sans-serif">AGENTS</text>
    <text x="28" y="118" font-size="16" fill="#A9B8D0" font-family="'Segoe UI','Inter','Helvetica Neue',Arial,sans-serif">LLMs that reason, pick a tool</text><text x="28" y="142" font-size="16" fill="#A9B8D0" font-family="'Segoe UI','Inter','Helvetica Neue',Arial,sans-serif">and finish the job — not chatbots</text><text x="28" y="166" font-size="16" fill="#A9B8D0" font-family="'Segoe UI','Inter','Helvetica Neue',Arial,sans-serif">that stop at an answer.</text>
    <g transform="translate(0,212)"><g class="w w0"><path d="M0 0 q20 -18 40 0 t40 0 t40 0 t40 0 t40 0 t40 0 t40 0 t40 0 t40 0 t40 0 t40 0 t40 0 t40 0 t40 0" fill="none" stroke="#22D3EE" stroke-width="2.2" stroke-linejoin="round" stroke-linecap="round" opacity=".95"/></g></g>
  </g>
  <rect x=".75" y=".75" width="382.5" height="248.5" rx="17.5" fill="none" stroke="#1C2B48" stroke-width="1.5"/>
</g><g transform="translate(408,0)">
  <clipPath id="c1"><rect width="384" height="250" rx="18"/></clipPath>
  <g clip-path="url(#c1)">
    <rect width="384" height="250" fill="#0A1120"/>
    <rect width="384" height="3" fill="#F5B83D" opacity=".9"/>
    <text x="28" y="40" font-size="12" fill="#F5B83D" letter-spacing="2.5" font-family="'JetBrains Mono','SFMono-Regular',Consolas,'Liberation Mono',monospace">CH 02 · ON AIR</text>
    <rect class="eq e0" x="356" y="22" width="5" height="18" rx="1.5" fill="#F5B83D"/><rect class="eq e1" x="347" y="22" width="5" height="18" rx="1.5" fill="#F5B83D"/><rect class="eq e2" x="338" y="22" width="5" height="18" rx="1.5" fill="#F5B83D"/><rect class="eq e3" x="329" y="22" width="5" height="18" rx="1.5" fill="#F5B83D"/><rect class="eq e0" x="320" y="22" width="5" height="18" rx="1.5" fill="#F5B83D"/>
    <text x="28" y="84" font-size="30" font-weight="800" fill="#F1F6FF" letter-spacing="1" font-family="'Segoe UI','Inter','Helvetica Neue',Arial,sans-serif">NETWORKS</text>
    <text x="28" y="118" font-size="16" fill="#A9B8D0" font-family="'Segoe UI','Inter','Helvetica Neue',Arial,sans-serif">Monitoring, devices and ISP ops.</text><text x="28" y="142" font-size="16" fill="#A9B8D0" font-family="'Segoe UI','Inter','Helvetica Neue',Arial,sans-serif">Where an alert at 3 a.m. should</text><text x="28" y="166" font-size="16" fill="#A9B8D0" font-family="'Segoe UI','Inter','Helvetica Neue',Arial,sans-serif">already come with a diagnosis.</text>
    <g transform="translate(0,212)"><g class="w w1"><path d="M0 0 h30 l6 -6 l6 6 h6 l4 10 l6 -34 l6 30 l4 -6 h12 h30 l6 -6 l6 6 h6 l4 10 l6 -34 l6 30 l4 -6 h12 h30 l6 -6 l6 6 h6 l4 10 l6 -34 l6 30 l4 -6 h12 h30 l6 -6 l6 6 h6 l4 10 l6 -34 l6 30 l4 -6 h12 h30 l6 -6 l6 6 h6 l4 10 l6 -34 l6 30 l4 -6 h12 h30 l6 -6 l6 6 h6 l4 10 l6 -34 l6 30 l4 -6 h12 h30 l6 -6 l6 6 h6 l4 10 l6 -34 l6 30 l4 -6 h12" fill="none" stroke="#F5B83D" stroke-width="2.2" stroke-linejoin="round" stroke-linecap="round" opacity=".95"/></g></g>
  </g>
  <rect x=".75" y=".75" width="382.5" height="248.5" rx="17.5" fill="none" stroke="#1C2B48" stroke-width="1.5"/>
</g><g transform="translate(816,0)">
  <clipPath id="c2"><rect width="384" height="250" rx="18"/></clipPath>
  <g clip-path="url(#c2)">
    <rect width="384" height="250" fill="#0A1120"/>
    <rect width="384" height="3" fill="#B79CFF" opacity=".9"/>
    <text x="28" y="40" font-size="12" fill="#B79CFF" letter-spacing="2.5" font-family="'JetBrains Mono','SFMono-Regular',Consolas,'Liberation Mono',monospace">CH 03 · ON AIR</text>
    <rect class="eq e0" x="356" y="22" width="5" height="18" rx="1.5" fill="#B79CFF"/><rect class="eq e1" x="347" y="22" width="5" height="18" rx="1.5" fill="#B79CFF"/><rect class="eq e2" x="338" y="22" width="5" height="18" rx="1.5" fill="#B79CFF"/><rect class="eq e3" x="329" y="22" width="5" height="18" rx="1.5" fill="#B79CFF"/><rect class="eq e0" x="320" y="22" width="5" height="18" rx="1.5" fill="#B79CFF"/>
    <text x="28" y="84" font-size="30" font-weight="800" fill="#F1F6FF" letter-spacing="1" font-family="'Segoe UI','Inter','Helvetica Neue',Arial,sans-serif">PRODUCTS</text>
    <text x="28" y="118" font-size="16" fill="#A9B8D0" font-family="'Segoe UI','Inter','Helvetica Neue',Arial,sans-serif">SaaS, mobile and WhatsApp apps</text><text x="28" y="142" font-size="16" fill="#A9B8D0" font-family="'Segoe UI','Inter','Helvetica Neue',Arial,sans-serif">built for real Brazilian</text><text x="28" y="166" font-size="16" fill="#A9B8D0" font-family="'Segoe UI','Inter','Helvetica Neue',Arial,sans-serif">businesses and people.</text>
    <g transform="translate(0,212)"><g class="w w2"><path d="M0 0 v-14 h20 v14 h20 v-14 h10 v14 h30 v-14 h20 v14 h20 v-14 h10 v14 h30 v-14 h20 v14 h20 v-14 h10 v14 h30 v-14 h20 v14 h20 v-14 h10 v14 h30 v-14 h20 v14 h20 v-14 h10 v14 h30 v-14 h20 v14 h20 v-14 h10 v14 h30 v-14 h20 v14 h20 v-14 h10 v14 h30" fill="none" stroke="#B79CFF" stroke-width="2.2" stroke-linejoin="round" stroke-linecap="round" opacity=".95"/></g></g>
  </g>
  <rect x=".75" y=".75" width="382.5" height="248.5" rx="17.5" fill="none" stroke="#1C2B48" stroke-width="1.5"/>
</g>
</svg>